<svg width="162" height="37" viewBox="0 0 162 37" fill="none" xmlns="http://www.w3.org/2000/svg">
<path fill-rule="evenodd" clip-rule="evenodd" d="M154.373 2.70654L161.139 2.74372C161.139 2.74372 148.56 19.7888 147.533 21.178C147.199 21.6279 146.692 22.113 146.435 22.7144C145.786 24.2262 145.119 27.5424 145.119 27.5424L138.928 27.5731C138.928 27.5731 139.891 24.1166 139.852 22.2754C139.817 20.6668 138.996 19.0605 138.535 17.4473C138.07 15.8146 137.438 12.6192 137.438 12.6192H143.802L144.68 16.1306L154.373 2.70654Z" fill="#1A1918"/>
<path fill-rule="evenodd" clip-rule="evenodd" d="M141.561 6.30113C142.81 7.05397 143.576 11.206 143.576 11.206C143.576 11.206 137.043 11.3024 133.487 11.3024H130.415L126.684 27.5423H120.979C120.979 27.5423 124.529 9.89368 125.368 6.69397C125.64 5.65827 127.229 5.8358 129.912 5.8358H134.198C136.966 5.8358 140.201 5.48261 141.561 6.30113Z" fill="#1A1918"/>
<path fill-rule="evenodd" clip-rule="evenodd" d="M114.998 14.2105C114.998 14.2105 115.176 13.168 114.395 11.961C113.728 10.9318 113.111 10.6926 111.355 10.6378C106.398 10.482 106.494 14.1557 106.494 14.1557L114.998 14.2105ZM120.375 10.0036C121.101 12.624 119.717 18.7818 119.717 18.7818C119.717 18.7818 112.485 18.661 108.524 18.7818C107.293 18.8193 105.819 18.6479 105.452 19.2208C104.936 20.0238 105.64 21.2596 106.237 21.7817C106.925 22.383 108.263 22.4512 108.744 22.5125C111.959 22.9208 118.687 22.6178 118.687 22.6178L117.522 27.7793C117.522 27.7793 108.013 28.2558 103.257 27.1209C102.318 26.8972 101.438 26.4452 100.843 25.8042C100.681 25.6289 100.54 25.3897 100.387 25.1834C100.264 25.0186 99.9064 24.4767 99.7459 24.0485C98.6597 21.154 99.8733 15.6084 101.063 12.637C101.201 12.2925 101.374 11.856 101.557 11.4848C101.785 11.022 101.978 10.4996 102.16 10.223C102.283 10.0321 102.434 9.90914 102.562 9.72914C102.709 9.5163 102.88 9.30997 103.038 9.12594C103.477 8.61661 103.975 8.25662 104.574 7.80925C106.556 6.32557 110.142 5.17339 114.45 5.61456C116.071 5.78124 118.521 6.36058 119.717 8.0286C120.037 8.4741 120.195 9.3583 120.375 10.0036Z" fill="#1A1918"/>
<path fill-rule="evenodd" clip-rule="evenodd" d="M94.2048 5.81604L99.7374 5.7832C99.7374 5.7832 96.6542 20.4099 95.0828 27.5424H88.7184C84.2702 27.5424 80.3089 28.0932 78.6236 24.9087C76.9887 21.8168 78.5489 16.7319 79.2819 13.2775C79.7999 10.8328 80.8907 5.83587 80.8907 5.83587L86.6228 5.7832C86.6228 5.7832 85.0032 13.5628 84.3293 17.4472C84.088 18.8386 83.5901 20.1488 84.11 21.178C84.6038 22.157 85.295 22.227 87.4017 22.2753C88.069 22.2908 90.2547 22.2753 90.2547 22.2753L94.2048 5.81604Z" fill="#1A1918"/>
<path fill-rule="evenodd" clip-rule="evenodd" d="M68.3092 16.3499C68.8885 14.2915 69.7334 12.0596 69.6259 10.2051C69.5097 8.22139 67.8463 6.4152 66.7731 6.03568C63.5406 4.89434 60.5144 6.48986 59.3117 7.79106C57.7555 9.47674 57.2288 11.4453 56.678 14.1555C56.2678 16.1677 55.932 18.2921 56.678 19.8612C57.999 22.6353 62.1182 22.0296 66.5535 22.0559C67.2118 20.2916 67.7562 18.3097 68.3092 16.3499ZM75.9903 8.23006C76.6223 12.8255 74.1974 17.8974 72.5272 22.3081C74.2303 22.4618 75.7226 22.2843 75.8301 22.4113C75.942 22.5761 74.6888 27.6762 74.2519 27.6892C72.9002 27.7245 68.4213 27.7617 66.5535 27.7617C60.4592 27.7617 54.7578 28.1589 51.8502 25.1283C50.6695 23.8971 49.8532 21.7858 49.6555 20.3002C49.3262 17.8202 49.7389 15.0902 50.3139 12.8388C50.8341 10.8064 51.5011 8.88841 52.5086 7.13272C55.0695 2.66247 59.5245 -0.655588 66.9925 0.110262C68.4408 0.25959 70.5212 0.89377 71.8206 1.6463C71.9104 1.69928 72.2245 1.94929 72.2967 1.99328C74.0524 3.11046 75.6523 5.77668 75.9903 8.23006Z" fill="#1A1918"/>
<path fill-rule="evenodd" clip-rule="evenodd" d="M49.0255 5.8425C48.6568 7.52135 48.2881 9.42421 47.8996 11.0832H41.7549C42.2311 9.24421 42.5954 7.41602 43.0716 5.81616C45.0379 5.81616 46.8661 5.8425 49.0255 5.8425Z" fill="#1A1918"/>
<path fill-rule="evenodd" clip-rule="evenodd" d="M41.5355 12.6194H47.4606C46.686 16.9078 45.1522 23.8249 43.9495 28.6396C43.1967 31.6528 42.6941 33.8519 40.6575 35.4428C40.4753 35.5856 40.3703 35.5177 40.2188 35.6624C39.8433 36.0202 38.1074 36.4351 37.1464 36.5401C35.5837 36.7093 33.8172 36.5621 31.897 36.5227C32.3995 34.6859 32.968 32.4804 33.4157 30.8343C38.0966 31.4007 38.2152 26.9763 39.1214 22.7145C39.6459 20.2522 41.2349 13.6071 41.5355 12.6194Z" fill="#1A1918"/>
<path fill-rule="evenodd" clip-rule="evenodd" d="M27.7097 23.8116L27.5827 24.1406C25.4187 28.354 21.5848 30.9394 16.116 31.0534C13.5595 31.1061 11.1235 30.4502 9.53227 29.7367C6.09803 28.1939 3.20967 25.3325 1.63212 22.2753C-0.630726 17.8927 -1.03875 11.7963 3.66633 7.24268C3.73883 7.24268 3.09566 8.23004 3.16816 8.23004L3.03866 8.65138C-0.351897 19.2664 10.094 28.363 20.2483 27.3227C22.6886 27.0727 25.8007 25.7361 27.7097 23.8116Z" fill="#21609B"/>
<path fill-rule="evenodd" clip-rule="evenodd" d="M21.565 19.4223C24.1196 19.44 26.788 18.246 28.3681 16.5696C26.9857 20.0788 22.983 22.3345 17.6149 21.617C13.1205 21.0157 8.8389 16.4928 8.39774 11.9609C8.07522 8.66263 9.22493 6.6941 11.1191 4.3064C10.4608 5.55524 10.2148 6.51844 10.1534 7.13279C9.43374 14.2674 15.8527 19.3851 21.565 19.4223Z" fill="#21609B"/>
<path fill-rule="evenodd" clip-rule="evenodd" d="M28.1118 10.5607C27.7146 11.4716 25.4279 13.1919 24.4183 13.407C20.4199 14.2586 17.859 12.3626 16.5178 10.2051C16.3183 9.88256 15.9496 9.0027 15.8836 8.77871C15.3635 7.01001 15.6026 4.3348 17.1545 2.94995C16.687 4.26664 16.6188 5.79617 16.8648 6.79035C17.0138 7.39169 17.468 8.44102 17.9225 9.10122C18.7497 10.3039 19.2742 10.5961 20.3365 11.2346C20.8149 11.5221 21.3282 11.7526 21.55 11.8161C22.5572 12.1123 24.6838 12.8936 28.1118 10.5607Z" fill="#21609B"/>
</svg>
